# xmcd CD database file
#
# Track frame offsets:
#	150
#	19353
#	35179
#	81078
#	95029
#	118276
#	136839
#	153639
#	166915
#	192794
#	211461
#	228855
#	246213
#	265253
#	285986
#	303771
#
# Disc length: 4363 seconds
#
# Revision: 0
# Processed by: cddbd v1.5PL3 Copyright (c) Steve Scherf et al.
# Submitted via: CDex 1.51
#
DISCID=dd110910
DTITLE=Blues Paradise Good Whiskey Blues vol.10 - A Collection Of Blues Songs From The World
DYEAR=1999
DGENRE=Blues
TTITLE0=Sten Webb - Koko Road
TTITLE1=Ronander Blues - I Can't Be Satisfield
TTITLE2=Engerling - Holl-Blues
TTITLE3=Lee Baker and The Agitators - Linda You
TTITLE4=Mike Morgan& Jim Suhler - Where'd You Get Your
TTITLE5=Reddog - Little Girl
TTITLE6=Arthur Brown - Monkey Walk
TTITLE7=Larry Burton - The Blues Just Stay The Same
TTITLE8="Sir" Oliver Mally's Blues Distillery - Blue Raindrops
TTITLE9=The Texas Trumpets - Last Night
TTITLE10=Dooble Twisters - Never For Get You
TTITLE11=Colin James - Something Good
TTITLE12=Bluesix - "Drinkin" Wine Spo-Dee-O-Dee
TTITLE13=D-Train - Fight
TTITLE14=Gregor Hilden - Down Home Blues
TTITLE15=Graig Ericson Project - Broke Down Love
EXTD=YEAR: 1999
EXTT0=
EXTT1=
EXTT2=
EXTT3=
EXTT4=
EXTT5=
EXTT6=
EXTT7=
EXTT8=
EXTT9=
EXTT10=
EXTT11=
EXTT12=
EXTT13=
EXTT14=
EXTT15=
PLAYORDER=
